<svg xmlns="http://www.w3.org/2000/svg" width="214" height="102" viewBox="0 0 214 102" xmlns:xlink="http://www.w3.org/1999/xlink"><defs><circle id="a" cx="3.5" cy="3.5" r="3.5"/><circle id="b" cx="3.5" cy="3.5" r="3.5"/><path id="c" d="M5 0h44c2.76 0 5 2.24 5 5v26c0 2.76-2.24 5-5 5H5c-2.76 0-5-2.24-5-5V5c0-2.76 2.24-5 5-5z"/></defs><g fill="none" fill-rule="evenodd"><path fill="#D6D4DE" d="M23.31 49.207C25.12 38.31 34.59 30 46 30c11.41 0 20.88 8.31 22.69 19.207 1.196.432 2.09 1.498 2.275 2.793h1.532c.278 0 .503.232.503.5 0 .276-.233.5-.503.5h-1.532c-.178 1.24-1.005 2.27-2.126 2.735C67.486 67.148 57.776 76 46 76s-21.487-8.852-22.84-20.265c-1.12-.465-1.947-1.495-2.125-2.735h-1.532c-.27 0-.503-.224-.503-.5 0-.268.225-.5.503-.5h1.532c.186-1.295 1.08-2.36 2.276-2.793z"/><g transform="translate(21 28)"><g transform="translate(45 19)"><rect width="7" height="1" x="2" y="3" fill="#F5A623" rx=".5"/><use fill="#FB722E" xlink:href="#a"/><circle cx="3.5" cy="3.5" r="3" stroke="#333" stroke-opacity=".1"/><path fill="#D3652E" fill-rule="nonzero" d="M3.5 6C4.88 6 6 4.88 6 3.5S4.88 1 3.5 1 1 2.12 1 3.5 2.12 6 3.5 6zm0 1C1.567 7 0 5.433 0 3.5S1.567 0 3.5 0 7 1.567 7 3.5 5.433 7 3.5 7z"/></g><g transform="matrix(-1 0 0 1 9 19)"><rect width="7" height="1" x="2" y="3" fill="#F5A623" rx=".5"/><use fill="#FB722E" xlink:href="#b"/><circle cx="3.5" cy="3.5" r="3" stroke="#333" stroke-opacity=".1"/><path fill="#D3652E" fill-rule="nonzero" d="M3.5 6C4.88 6 6 4.88 6 3.5S4.88 1 3.5 1 1 2.12 1 3.5 2.12 6 3.5 6zm0 1C1.567 7 0 5.433 0 3.5S1.567 0 3.5 0 7 1.567 7 3.5 5.433 7 3.5 7z"/></g><path fill="#6B4FBB" d="M27 46c12.703 0 23-10.297 23-23S39.703 0 27 0 4 10.297 4 23s10.297 23 23 23z"/><path fill="#5B439F" fill-rule="nonzero" d="M27 45c12.15 0 22-9.85 22-22S39.15 1 27 1 5 10.85 5 23s9.85 22 22 22zm0 1C14.297 46 4 35.703 4 23S14.297 0 27 0s23 10.297 23 23-10.297 23-23 23z"/><path fill="#B8E986" d="M23 40c-.552 0-1-.448-1-1s.448-1 1-1 1 .448 1 1-.448 1-1 1zm4 0c-.552 0-1-.448-1-1s.448-1 1-1 1 .448 1 1-.448 1-1 1zm4 0c-.552 0-1-.448-1-1s.448-1 1-1 1 .448 1 1-.448 1-1 1z"/><rect width="36" height="22" x="9" y="13" fill="#FDF4F6" stroke="#B4A6DC" rx="11"/><path fill="#B4A6DC" fill-rule="nonzero" d="M9.5 24c0 5.8 4.7 10.5 10.497 10.5h14.006C39.796 34.5 44.5 29.797 44.5 24c0-5.8-4.7-10.5-10.497-10.5H19.997C14.204 13.5 9.5 18.203 9.5 24zm-1 0c0-6.35 5.152-11.5 11.497-11.5h14.006c6.35 0 11.497 5.148 11.497 11.5 0 6.35-5.152 11.5-11.497 11.5H19.997C13.647 35.5 8.5 30.352 8.5 24z"/><path fill="#D4CDCE" fill-rule="nonzero" d="M23.723 28.23C24.23 29.586 25.53 30.5 27 30.5c1.496 0 2.812-.948 3.302-2.337.092-.26-.045-.545-.306-.637-.26-.092-.546.045-.637.305-.35.993-1.29 1.67-2.36 1.67-1.05 0-1.978-.654-2.34-1.62-.098-.26-.387-.39-.645-.293-.26.097-.39.385-.292.644z"/><path fill="#333" d="M19.5 24c-.828 0-1.5-.672-1.5-1.5s.672-1.5 1.5-1.5 1.5.672 1.5 1.5-.672 1.5-1.5 1.5zm15 0c-.828 0-1.5-.672-1.5-1.5s.672-1.5 1.5-1.5 1.5.672 1.5 1.5-.672 1.5-1.5 1.5z"/><path fill="#000" d="M25 6.5c0-.276.215-.5.49-.5h3.02c.27 0 .49.232.49.5 0 .276-.215.5-.49.5h-3.02c-.27 0-.49-.232-.49-.5zm0 2c0-.276.215-.5.49-.5h3.02c.27 0 .49.232.49.5 0 .276-.215.5-.49.5h-3.02c-.27 0-.49-.232-.49-.5z" style="mix-blend-mode:multiply" opacity=".2"/></g><path fill="#C3B8E3" d="M105 49h-6c-1.105 0-2 .895-2 2s.895 2 2 2h6v6c0 1.105.895 2 2 2s2-.895 2-2v-6h6c1.105 0 2-.895 2-2s-.895-2-2-2h-6v-6c0-1.105-.895-2-2-2s-2 .895-2 2v6z"/><path fill="#D6D4DE" d="M142 35h44c2.76 0 5 2.24 5 5v26c0 2.76-2.24 5-5 5h-44c-2.76 0-5-2.24-5-5V40c0-2.76 2.24-5 5-5z"/><g transform="translate(139 33)"><use fill="#FFF" xlink:href="#c"/><path fill="#FC6D26" d="M53.316 2.474C52.446.994 50.84 0 49 0H5C3.16 0 1.553.994.684 2.474l22.78 20.99c1.953 1.953 5.12 1.953 7.072 0l22.78-20.99z"/></g></g></svg>
